<?xml version="1.0" encoding="utf-8"?>
<!-- Generator: Adobe Illustrator 19.1.0, SVG Export Plug-In . SVG Version: 6.00 Build 0)  -->
<!DOCTYPE svg PUBLIC "-//W3C//DTD SVG 1.1//EN" "http://www.w3.org/Graphics/SVG/1.1/DTD/svg11.dtd">
<svg version="1.1" id="Layer_1" xmlns="http://www.w3.org/2000/svg" xmlns:xlink="http://www.w3.org/1999/xlink" x="0px" y="0px"
	 viewBox="252 -202.9 660 660" style="enable-background:new 252 -202.9 660 660;" xml:space="preserve">
<style type="text/css">
	.st0{fill:#433E48;}
	.st1{fill:#FFFFFF;}
	.st2{fill-rule:evenodd;clip-rule:evenodd;fill:#E05E62;}
	.st3{fill-rule:evenodd;clip-rule:evenodd;fill:#BEE1EF;}
	.st4{fill-rule:evenodd;clip-rule:evenodd;fill:#8BCABA;}
</style>
<g>
	<circle class="st0" cx="582" cy="127.1" r="330"/>
	<path class="st1" d="M817.1,117.3c-8.5,16.1-17.4,28.3-26.8,36.6c-9.2,8.5-19.5,12.8-30.9,12.8c-9,0-15.4-2.9-19.2-8.7
		c-0.9-2-1.6-3.8-2.2-5.4c-13.4,10.7-25.3,16.3-35.8,16.8h-1.4c-8.3,0-15.2-3-20.6-9c-3.1-3.3-5.1-7.1-6.3-11.1
		c-11.5,9.4-23,14.5-34.4,15.4h-0.3h-2.4c-8.5,0-14.6-2.9-18.4-8.7c-3.1-4.4-4.1-10.4-3.1-17.8c0.9-6.9,3.7-15.1,8.4-24.7
		c5.2-10.7,7.5-18,6.8-22c-0.9-4.2-4.8-8.5-11.6-13c-2.2,4.7-4.9,10.7-8.1,17.9c-0.1,0.2-0.2,0.3-0.3,0.5c0,0.1-0.1,0.3-0.1,0.4
		c-16.1,42.2-24.7,45.7-56,40.6c-3.2,3.6-7.3,7.5-12.2,11.7c-11,8.9-21,14.3-30.1,16.3c-3.2,0.4-5.4,0.5-6.5,0.5
		c-7.4,0-13.4-2.5-17.9-7.6c-2.4-2.6-4.2-5.6-5.4-9c-3.5,4-7.2,7.8-11.4,11.2c-13.9,11.6-28.2,18.5-42.8,20.9
		c-3.4,0.5-7,0.8-10.6,0.8c-15.2,0-28.9-5.1-41.2-15.2c-14.6-12.1-21.7-31.1-21.1-57c0.5-23.9,7.3-48.9,20.3-74.9
		c13-26.4,29.3-47,49-61.6c14.8-11,28.2-17.8,40.1-20.4c6.7-1.1,12.3-1.2,16.8-0.3c5.6,1.5,10.1,4,13.5,7.6
		c8.1,8.3,10,20.6,5.7,36.9c-3.8,14.5-12.3,29.9-25.5,46.1c-1.8,2-4,3.1-6.6,3.4s-4.9-0.4-6.9-2c-2.2-1.8-3.4-4-3.7-6.7
		c-0.3-2.6,0.5-4.9,2.3-6.9c11.4-13.9,18.6-26.9,21.7-38.8c2.7-9,2.3-15.3-1.1-18.7c-2.3-2.5-6.4-3.1-12.2-1.6
		c-8.8,1.4-19.8,7.1-32.8,16.8C419.2,1.7,404.9,19.6,393,43s-18.1,46.1-18.7,68c-0.4,19.5,4.3,33.4,14.1,41.5
		c11,9,23.2,12.5,36.6,10.3c11.4-2,22.8-7.8,34.4-17.4c11.6-9.6,18.9-22.2,28.4-37.7c0.3-0.5,0.6-1,1-1.5c4.4-8.6,10.4-16.5,18-23.8
		c2-2,4.3-2.9,7-2.7c2.3-6,6-11,10.8-15.2c11-9.9,21.8-13.3,32.2-10c9.8,3.4,15.8,11.4,18.1,23.9c2,10.9,0.3,22.5-5.1,35
		c-0.7,1.8-1.4,3.2-1.9,4.1c10.4,1.4,12.3-5.4,16.7-11.8c6.1-11.4,12-25.1,18.5-39.7c-0.9-1.4-1.6-2.9-2.2-4.3
		c-2-5.2-1.6-10.3,1.1-15.2c1.8-3.4,4.4-5.8,7.9-7.2c3.4-1.4,6.7-1.3,9.8,0.1c5.2,2.4,7.7,7.1,7.3,14.1c0,1.3-0.4,3.5-1.1,6.8
		c13.7,8.3,21.5,17.6,23.3,27.7c1.4,8-1.4,19.2-8.4,33.9c-12.4,26-2.4,25.5-2.4,25.5c7-0.4,14.9-6,23.7-13c7.5-6,14-13.2,19.6-21.5
		c2.5-4.6,5.6-9.4,9.3-14.3c9.6-12.5,19.3-22.3,29.3-29.6c8.3-6,17-9.6,26.1-11s16.8,0,23.2,3.9c8.5,5.4,11.6,13.7,9.5,24.7
		c-0.4,2.4-1.5,4.3-3.4,5.7s-4,2.1-6.4,1.9c2.3,1.1,4.2,2.7,5.4,4.9c2.5,5.6-0.3,13.7-8.4,24.2c-0.9,1.3-2.8,3.5-5.7,6.8
		c-0.2,0.5-0.7,1.9-1.5,3.9c-0.8,2.1-1.4,3.7-1.8,4.8c-1.8,6.1,0.3,8.2,1.9,8.7c12.8,3.8,26.9-13,40.6-39.1c1.3-2.4,3.2-3.9,5.7-4.8
		c2.5-0.8,5-0.6,7.3,0.7s3.9,3.2,4.7,5.7C818.6,112.5,818.4,114.9,817.1,117.3z M513,104.3c-5.4,7.1-9.3,14.7-11.6,22.8
		c-2.3,9.1-2.1,15.4,0.8,19c1.8,0.9,3.9,1.2,6.2,0.8c5.8-1.3,13-5.3,21.7-12.2c0.5-0.4,1.3-1,2.3-1.9s1.7-1.5,2-1.9
		C523.3,124.2,516.2,115.3,513,104.3z M556.3,81.7c-0.9-5.1-2.7-8.1-5.4-9c-0.4-0.2-0.9-0.3-1.6-0.3c-3.1,0-7,2.1-11.6,6.2
		c-6.3,5.8-8.4,12.2-6.2,19.3c2,7.6,7.2,13.6,15.7,17.9C555,103.6,558.1,92.2,556.3,81.7z M765.4,93.7h0.8c-4.9-2-6.9-5.6-6-10.9
		c0.5-2.7,0.2-4.2-1.1-4.6c-1.4-0.9-3.4-1.4-6-1.4c-7,0-14.2,2.6-21.4,7.9c-8.5,6.2-17,14.8-25.6,25.9c-1.4,1.9-2.7,3.7-3.9,5.5
		c-0.2,0.8-0.6,1.6-1.1,2.3c-1.4,2.4-2.9,4.7-4.5,6.9c-2.6,5.1-4.1,9.8-4.5,14c-0.2,3.4,0.5,6.2,2.2,8.1c1.8,2,4.2,2.9,7,2.7
		c10.8-0.5,25.1-10.7,42.8-30.4c0.4-0.5,0.8-1.3,1.2-2.3s0.8-1.8,0.9-2.3l1.6-3.5c2.2-4.9,4.2-8.6,6.2-11.1
		C757.7,95.9,761.4,93.7,765.4,93.7z"/>
</g>
<g>
	<g>
		<g>
			<polygon class="st2" points="457.7,221.2 434.1,245.4 457.7,269.5 481.3,245.4 			"/>
		</g>
	</g>
	<g>
		<g>
			<polygon class="st3" points="706.3,221.2 682.7,245.4 706.3,269.5 729.9,245.4 			"/>
		</g>
	</g>
	<g>
		<g>
			<polygon class="st4" points="582,221.2 558.4,245.4 582,269.5 605.6,245.4 			"/>
		</g>
	</g>
</g>
</svg>
