<?xml version="1.0" encoding="utf-8"?>
<!-- Generator: Adobe Illustrator 19.1.0, SVG Export Plug-In . SVG Version: 6.00 Build 0)  -->
<!DOCTYPE svg PUBLIC "-//W3C//DTD SVG 1.1//EN" "http://www.w3.org/Graphics/SVG/1.1/DTD/svg11.dtd">
<svg version="1.1" id="Layer_1" xmlns="http://www.w3.org/2000/svg" xmlns:xlink="http://www.w3.org/1999/xlink" x="0px" y="0px"
	 viewBox="48 261.9 691 318" style="enable-background:new 48 261.9 691 318;" xml:space="preserve">
<style type="text/css">
	.st0{enable-background:new    ;}
	.st1{fill:#FFFFFF;}
</style>
<g>
	<g class="st0">
		<path class="st1" d="M110,449.4c-4.7-1.6-8.4-3.8-11.1-6.7c-2.7-2.9-4.3-6.4-5-10.6c-1.1-7.1,1-13.7,6.4-19.8
			c5.4-6.1,13.3-10,23.7-11.6c4.4-0.7,8.4-0.8,12-0.4c3.6,0.4,6.8,1.4,9.6,3c3.2-4.4,7.2-7,12.2-7.8c6.3-1,9.8,1.2,10.6,6.4
			c0.8,5.5-0.8,8.5-4.8,9.1c-2.2,0.3-4.6-0.5-7.1-2.5c-1.5-1.1-2.6-1.6-3.5-1.5c-0.5,0.1-1.1,0.4-1.9,1c3.6,3.1,5.8,6.9,6.5,11.5
			c0.8,5-0.2,10-2.8,14.9c-2.7,4.9-6.2,8.6-10.7,11.1c-4.5,2.5-10.5,4.4-18.1,5.9c-9.5,1.9-14,4.4-13.5,7.6c0.2,1.4,1.2,2.5,3,3.3
			c1.8,0.7,6,1.5,12.7,2.2c11.8,1.2,20.3,3.2,25.7,6c5.3,2.8,8.5,7.4,9.5,13.7c1.3,8.1-1.8,15-9.2,20.6c-7.4,5.6-18.4,9.5-33.1,11.8
			c-12.7,2-22.6,1.8-29.5-0.5s-10.9-6.8-11.9-13.3c-0.7-4.6,0.4-8.5,3.3-11.8c2.9-3.3,5.8-5.1,8.5-5.6c2.2-0.3,3.4,0.5,3.7,2.6
			c0.1,0.8-0.1,1.7-0.7,2.9c-1.4,3.2-1.9,6.3-1.5,9.2c0.6,4,3,6.8,7.1,8.2c4.1,1.5,9.9,1.6,17.4,0.5c7.8-1.2,13.6-3,17.2-5.5
			c3.6-2.4,5.2-5.5,4.6-9.1c-0.3-2.3-1.8-3.9-4.3-5c-2.6-1-7.5-2-14.7-3.1c-10.2-1.4-17-3.5-20.4-6.3c-3.4-2.8-5.3-6-5.9-9.8
			C93.1,461.7,98.3,454.8,110,449.4z M117.4,435.6c0.5,3.2,1.4,5.5,2.6,7c1.3,1.4,2.9,2,5,1.7c3.3-0.5,5.8-4.3,7.7-11.3
			c1.9-7,2.4-13.6,1.4-19.9c-0.4-2.4-1.1-4.1-2.2-5.1c-1.1-1-2.6-1.4-4.5-1.1c-2.3,0.4-4.3,1.8-5.9,4.3c-1.6,2.5-2.8,6.6-3.6,12.2
			C117.2,429,117,433.1,117.4,435.6z"/>
		<path class="st1" d="M198.6,435.1c-0.2,1.8-0.2,3.6,0,5.2c0.7,4.4,2.1,7.5,4.3,9.4c2.2,1.9,5.2,2.6,8.9,2
			c3.8-0.6,7.5-2.3,11.1-5.1c3.6-2.8,7.1-6.7,10.5-11.7l11-1.7c-3.4,7.2-8.7,13.6-15.9,19.2c-7.2,5.6-15.4,9.2-24.7,10.6
			c-8,1.2-14.8,0.5-20.5-2.3c-5.7-2.7-9.1-7.8-10.3-15.3c-1.9-12.1,2.3-24.5,12.4-37.4c10.1-12.9,22.2-20.4,36.2-22.5
			c6.1-0.9,10.9-0.5,14.3,1.3c3.4,1.8,5.4,5,6.1,9.5c1.1,7.2-2.3,14.3-10.3,21.5C223.8,424.9,212.7,430.7,198.6,435.1z M199.1,426.1
			c6.6-2,12.1-5.9,16.7-11.5c4.6-5.6,6.5-10.7,5.8-15.4c-0.3-1.7-0.9-2.9-1.8-3.7c-1-0.7-2.3-1-3.9-0.7c-3.9,0.6-7.4,3.7-10.4,9.2
			C202.5,409.6,200.4,417,199.1,426.1z"/>
		<path class="st1" d="M300.8,421.5l9.2-1.4c-1.4,6.8-4.4,13.4-9.2,19.7c-4.8,6.3-10.9,10-18.4,11.2c-4.7,0.7-8.9,0.1-12.5-1.9
			c-3.6-2-5.8-5.9-6.7-11.6c-0.6-3.6-0.2-9.3,1-16.9l4.3-30.1l-13.9,2.1l1.4-9.6l13.9-2.1l3.7-26.4l24.7-3.8l-3.8,26.4l15.1-2.3
			l-1.4,9.6l-15.1,2.3l-5.1,35.3c-1,6.6-1.3,10.6-1.1,11.9c0.2,1.2,0.6,2.1,1.2,2.6c0.6,0.5,1.4,0.7,2.5,0.5
			C294.7,436.4,298.1,431.2,300.8,421.5z"/>
	</g>
	<g class="st0">
		<path class="st1" d="M271.9,520.2l13.1-2c-5.2,10.2-11.6,18.3-19.3,24.2c-7.7,5.9-16.6,9.6-26.8,11.2c-11.4,1.8-20.5,0.8-27.3-3
			c-6.8-3.8-10.9-10.1-12.3-18.9c-1.5-9.8,0.1-20,4.9-30.5s11.5-19.3,20.3-26.5c8.7-7.1,18.3-11.5,28.6-13c9-1.4,15.9-0.5,20.8,2.7
			c4.9,3.2,7.7,7.6,8.6,13.1c0.6,4.1,0,7.9-1.8,11.4c-1.9,3.5-4.9,5.6-9.2,6.2c-3,0.5-5.8-0.1-8.5-1.6c-2.7-1.5-4.4-4.3-5-8.2
			c-0.3-1.7-0.2-3.6,0.1-5.6c0.3-1.7,0.4-3,0.2-3.8c-0.2-1.6-1-2.7-2.3-3.3c-1.3-0.6-3.1-0.7-5.5-0.4c-4,0.6-7.7,3.2-11,7.8
			c-3.3,4.6-5.9,12.1-7.8,22.7c-1.9,10.5-2.4,18.4-1.6,23.7c0.8,5.2,2.5,9,5.2,11.3c2.7,2.3,6.2,3.1,10.7,2.4
			c4.7-0.7,9.2-2.7,13.5-6.1C263.7,530.7,267.9,526.1,271.9,520.2z"/>
		<path class="st1" d="M345.1,509.9l10.1-1.6c-1.9,7.8-5.8,14.8-11.7,21c-5.9,6.2-13.2,10-21.8,11.3c-5.8,0.9-10.5,0.3-14.1-1.7
			c-3.7-2-5.8-5.2-6.5-9.6c-0.3-1.7,0.2-7.5,1.4-17.2l12.7-87.8c0.6-4,0.8-6.6,0.6-7.8c-0.5-3.5-4.8-4.6-12.7-3.4l1.5-10.8
			c16.2-2.5,27.8-5.2,34.6-8.2l9.4-1.5l-17.5,121c-0.5,3.5-0.7,5.8-0.6,6.7c0.3,2.1,1.7,3,4.2,2.6C338.5,522.4,342,518,345.1,509.9z
			"/>
		<path class="st1" d="M393,495.1c-0.3,2.2-0.3,4.3,0,6.2c0.8,5.2,2.5,9,5.2,11.3c2.7,2.3,6.2,3.1,10.7,2.4c4.6-0.7,9-2.7,13.3-6.1
			c4.3-3.3,8.5-8,12.6-14l13.2-2c-4.1,8.6-10.4,16.3-19.1,23.1c-8.6,6.8-18.5,11-29.6,12.7c-9.6,1.5-17.8,0.6-24.7-2.7
			c-6.8-3.3-11-9.4-12.3-18.3c-2.2-14.5,2.7-29.5,14.8-44.9c12.1-15.4,26.6-24.4,43.5-27c7.3-1.1,13-0.6,17.1,1.5
			c4.1,2.2,6.5,5.9,7.3,11.4c1.3,8.6-2.8,17.2-12.4,25.8C423.3,482.9,410,489.8,393,495.1z M393.7,484.3c7.9-2.4,14.6-7,20-13.8
			c5.5-6.7,7.8-12.9,6.9-18.5c-0.3-2.1-1.1-3.5-2.2-4.4c-1.2-0.9-2.7-1.2-4.7-0.8c-4.7,0.7-8.8,4.4-12.4,11.1
			C397.7,464.6,395.2,473.3,393.7,484.3z"/>
		<path class="st1" d="M517.5,487.7c-9.2,16.5-19.3,25.6-30.2,27.3c-4.8,0.7-9.4-0.4-13.7-3.5c-4.3-3.1-7-8.4-8.2-16.1
			c-2.4-15.3,0.8-30.6,9.5-45.9c8.7-15.3,19.9-24,33.8-26.2c4.3-0.7,7.8,0,10.6,2c2.8,2,4.8,5.3,6.1,10l1.6-12.8l28.4-4.4l-8.9,61.1
			c-0.6,3.9-0.8,6.1-0.7,6.5c0.3,1.9,1.4,2.6,3.2,2.4c3.4-0.5,6.3-4.1,8.7-10.6l11-1.7c-1.8,8.5-5.6,15.6-11.3,21.3
			c-5.7,5.6-12.2,9-19.6,10.1c-5,0.8-9.3,0.1-13.1-2c-3.8-2.1-6.1-6-7-11.8C517.4,492,517.4,490.1,517.5,487.7z M494.5,486.4
			c0.4,2.6,1.2,4.6,2.4,5.8c1.2,1.2,2.7,1.7,4.6,1.4c3-0.5,6.1-3,9.4-7.7c3.3-4.7,6.1-12.2,8.3-22.6c2.2-10.4,3-17.9,2.3-22.4
			c-0.5-3-1.3-5.1-2.6-6.4c-1.3-1.3-3-1.8-5.1-1.4c-6.7,1-11.8,8.5-15.5,22.3C494.7,469.1,493.5,479.5,494.5,486.4z"/>
		<path class="st1" d="M581.5,497.4l9.5-65.1c0.5-3.3,0.7-5.5,0.5-6.5c-0.1-0.9-0.5-1.5-1-1.8c-0.5-0.3-1.2-0.4-2.2-0.3
			c-4.2,0.6-7.6,6.1-10.3,16.2l-8.2,1.3c4.3-19.7,14.3-30.8,29.7-33.2c5.2-0.8,9.5-0.1,12.8,2c3.3,2.1,5.3,5.4,6,9.9
			c0.9,5.7,0.4,14.5-1.5,26.6c11.3-29.1,24.6-44.9,40-47.2c4.1-0.6,7.9,0.1,11.4,2.2c3.5,2.1,5.5,5.3,6.2,9.6
			c0.4,2.5,0.3,6.1-0.4,10.6l-5,34.6c-0.9,6.7-1.3,10.5-1.2,11.6c0.3,2.2,1.5,3.1,3.6,2.8c4.1-0.6,7.8-5.5,11-14.7l9.8-1.5
			c-5.2,18.8-16.6,29.5-34.1,32.2c-6.4,1-11.2,0.4-14.3-1.9c-3.1-2.3-5-5.2-5.5-9c-0.3-2.2,0-6.6,0.9-13.2l4.6-31.6
			c0.5-3.6,0.7-5.8,0.6-6.6c-0.3-2-1.6-2.8-3.7-2.5c-5.1,0.8-10.6,9-16.6,24.6c-6,15.6-10.1,28.6-12.3,39l-0.8,7.3L581.5,497.4z"/>
	</g>
	<circle class="st1" cx="389.5" cy="369.2" r="33.4"/>
	<circle class="st1" cx="439.8" cy="337.9" r="19.6"/>
	<circle class="st1" cx="426.3" cy="305.7" r="9.1"/>
	<circle class="st1" cx="440.3" cy="290.5" r="5.2"/>
</g>
</svg>
