<svg xmlns="http://www.w3.org/2000/svg" xmlns:xlink="http://www.w3.org/1999/xlink" preserveAspectRatio="xMidYMid" width="75" height="75" viewBox="0 0 75 75">
  <defs>
    <style>
      .cls-1 {
        fill: #fff;
        opacity: 0.5;
        fill-rule: evenodd;
      }
    </style>
  </defs>
  <path d="M75.000,36.534 C75.000,56.712 58.518,73.068 38.182,73.068 C31.726,73.068 25.661,71.418 20.384,68.522 L-0.000,75.000 L6.646,55.398 C3.293,49.893 1.362,43.437 1.362,36.534 C1.362,16.357 17.847,0.000 38.182,0.000 C58.519,0.000 75.000,16.357 75.000,36.534 ZM38.182,5.818 C21.112,5.818 7.227,19.598 7.227,36.534 C7.227,43.255 9.417,49.479 13.123,54.543 L9.256,65.950 L21.152,62.169 C26.039,65.378 31.894,67.250 38.183,67.250 C55.250,67.250 69.138,53.473 69.138,36.536 C69.138,19.599 55.251,5.818 38.182,5.818 ZM56.774,44.948 C56.547,44.576 55.946,44.351 55.044,43.903 C54.141,43.456 49.703,41.288 48.878,40.991 C48.050,40.693 47.447,40.543 46.846,41.438 C46.245,42.335 44.515,44.351 43.988,44.948 C43.461,45.548 42.935,45.623 42.032,45.174 C41.130,44.727 38.223,43.780 34.775,40.730 C32.093,38.357 30.281,35.427 29.754,34.529 C29.228,33.633 29.699,33.149 30.150,32.703 C30.557,32.302 31.053,31.658 31.504,31.135 C31.957,30.612 32.107,30.239 32.406,29.641 C32.708,29.043 32.558,28.521 32.331,28.072 C32.106,27.624 30.299,23.218 29.547,21.424 C28.796,19.633 28.045,19.931 27.517,19.931 C26.992,19.931 26.389,19.856 25.787,19.856 C25.186,19.856 24.207,20.080 23.380,20.976 C22.553,21.873 20.222,24.039 20.222,28.445 C20.222,32.852 23.455,37.109 23.908,37.706 C24.358,38.303 30.149,47.639 39.324,51.225 C48.500,54.809 48.500,53.613 50.155,53.463 C51.808,53.314 55.493,51.298 56.248,49.208 C56.998,47.114 56.998,45.322 56.774,44.948 Z" class="cls-1"/>
</svg>
