<svg xmlns="http://www.w3.org/2000/svg" xmlns:xlink="http://www.w3.org/1999/xlink" preserveAspectRatio="xMidYMid" width="76" height="76" viewBox="0 0 76 76">
  <defs>
    <style>
      .cls-1 {
        fill: #fff;
        opacity: 0.5;
        fill-rule: evenodd;
      }
    </style>
  </defs>
  <path d="M72.827,43.502 C73.110,41.707 73.260,39.872 73.260,37.998 C73.260,18.524 57.473,2.738 37.998,2.738 C36.129,2.738 34.288,2.892 32.496,3.172 C29.248,1.163 25.415,-0.000 21.308,-0.000 C9.540,-0.000 -0.000,9.539 -0.000,21.307 C-0.000,25.414 1.163,29.244 3.172,32.498 C2.894,34.295 2.741,36.125 2.741,37.999 C2.741,57.475 18.527,73.256 37.998,73.256 C39.868,73.256 41.709,73.111 43.502,72.829 C46.753,74.834 50.583,76.000 54.689,76.000 C66.460,76.000 75.999,66.459 75.999,54.690 C76.000,50.582 74.837,46.753 72.827,43.502 ZM54.740,54.035 C53.248,56.182 51.057,57.860 48.194,59.067 C45.325,60.277 41.934,60.879 38.018,60.879 C33.324,60.879 29.438,60.057 26.371,58.399 C24.197,57.211 22.428,55.618 21.069,53.632 C19.707,51.644 19.016,49.697 19.016,47.798 C19.016,46.678 19.443,45.704 20.274,44.910 C21.114,44.110 22.196,43.710 23.473,43.710 C24.519,43.710 25.418,44.025 26.149,44.649 C26.875,45.273 27.484,46.180 27.983,47.378 C28.580,48.765 29.228,49.924 29.918,50.849 C30.604,51.763 31.569,52.526 32.819,53.123 C34.055,53.721 35.700,54.021 37.759,54.021 C40.576,54.021 42.853,53.411 44.596,52.209 C46.347,50.996 47.189,49.520 47.189,47.736 C47.189,46.314 46.735,45.184 45.805,44.303 C44.866,43.411 43.654,42.731 42.150,42.257 C40.640,41.778 38.612,41.270 36.072,40.735 C32.660,39.990 29.807,39.124 27.496,38.128 C25.182,37.129 23.340,35.764 21.974,34.038 C20.606,32.296 19.923,30.131 19.923,27.567 C19.923,25.121 20.644,22.934 22.086,21.031 C23.527,19.122 25.613,17.661 28.332,16.644 C31.042,15.627 34.232,15.118 37.887,15.118 C40.810,15.118 43.338,15.456 45.478,16.129 C47.612,16.807 49.391,17.701 50.813,18.823 C52.227,19.943 53.267,21.124 53.926,22.364 C54.584,23.607 54.915,24.821 54.915,26.006 C54.915,27.108 54.488,28.107 53.656,28.983 C52.824,29.860 51.759,30.307 50.516,30.303 C49.396,30.303 48.517,30.044 47.907,29.497 C47.313,28.968 46.690,28.125 46.015,26.950 C45.163,25.311 44.142,24.034 42.954,23.121 C41.798,22.225 39.891,21.758 37.237,21.764 C34.781,21.764 32.816,22.265 31.333,23.247 C29.841,24.244 29.128,25.401 29.124,26.756 C29.127,27.605 29.371,28.322 29.862,28.934 C30.361,29.552 31.055,30.088 31.948,30.539 C32.840,30.998 33.749,31.352 34.661,31.607 C35.584,31.869 37.116,32.247 39.245,32.748 C41.915,33.324 44.337,33.967 46.514,34.668 C48.686,35.372 50.540,36.221 52.071,37.233 C53.615,38.242 54.821,39.528 55.682,41.082 C56.550,42.638 56.982,44.539 56.982,46.776 C56.985,49.469 56.235,51.891 54.740,54.035 Z" class="cls-1"/>
</svg>
