<svg xmlns="http://www.w3.org/2000/svg" xmlns:xlink="http://www.w3.org/1999/xlink" preserveAspectRatio="xMidYMid" width="74" height="77" viewBox="0 0 74 77">
  <defs>
    <style>
      .cls-1 {
        fill: #fff;
        opacity: 0.5;
        fill-rule: evenodd;
      }
    </style>
  </defs>
  <path d="M53.290,70.102 C53.811,71.798 52.933,73.604 51.288,74.227 C45.867,76.279 40.763,77.000 34.152,77.000 C15.982,77.000 0.000,63.837 0.000,42.150 C-0.000,19.585 16.201,0.000 40.939,0.000 C60.206,0.000 74.000,13.387 74.000,31.975 C74.000,48.127 65.023,58.302 53.201,58.302 C48.057,58.302 44.332,55.649 43.788,49.785 L43.569,49.785 C40.172,55.429 35.248,58.302 29.446,58.302 C22.328,58.302 17.185,52.992 17.185,43.920 C17.185,30.427 27.038,18.143 42.802,18.143 C45.427,18.143 48.251,18.505 50.719,19.085 C53.655,19.776 55.552,22.641 55.069,25.649 L52.546,41.375 C51.448,47.907 52.215,50.893 55.281,51.001 C59.989,51.114 65.897,45.028 65.897,32.305 C65.897,17.923 56.703,6.747 39.736,6.747 C22.988,6.747 8.317,20.026 8.317,41.155 C8.317,59.631 20.033,70.143 36.341,70.143 C40.681,70.143 45.216,69.406 49.079,67.989 C49.913,67.683 50.835,67.736 51.630,68.134 C52.425,68.533 53.026,69.242 53.289,70.099 L53.290,70.102 ZM44.443,27.327 C43.569,27.106 42.473,26.885 41.051,26.885 C33.822,26.885 28.131,34.074 28.131,42.596 C28.131,46.799 29.994,49.451 33.603,49.451 C37.654,49.451 41.925,44.254 42.909,37.835 L44.443,27.327 Z" class="cls-1"/>
</svg>
