<svg xmlns="http://www.w3.org/2000/svg" xmlns:xlink="http://www.w3.org/1999/xlink" preserveAspectRatio="xMidYMid" width="30" height="17" viewBox="0 0 30 17">
  <defs>
    <style>
      .cls-1 {
        fill: #fff;
        fill-rule: evenodd;
      }
    </style>
  </defs>
  <path d="M28.500,10.000 L1.500,10.000 C0.672,10.000 -0.000,9.328 -0.000,8.500 C-0.000,7.672 0.672,7.000 1.500,7.000 L28.500,7.000 C29.328,7.000 30.000,7.672 30.000,8.500 C30.000,9.328 29.328,10.000 28.500,10.000 ZM28.500,3.000 L1.500,3.000 C0.672,3.000 -0.000,2.328 -0.000,1.500 C-0.000,0.672 0.672,-0.000 1.500,-0.000 L28.500,-0.000 C29.328,-0.000 30.000,0.672 30.000,1.500 C30.000,2.328 29.328,3.000 28.500,3.000 ZM1.500,14.000 L28.500,14.000 C29.328,14.000 30.000,14.672 30.000,15.500 C30.000,16.328 29.328,17.000 28.500,17.000 L1.500,17.000 C0.672,17.000 -0.000,16.328 -0.000,15.500 C-0.000,14.672 0.672,14.000 1.500,14.000 Z" class="cls-1"/>
</svg>
